<svg width="74" height="57" viewBox="0 0 74 57" fill="none" xmlns="http://www.w3.org/2000/svg">
<path d="M42.3163 32.1162L42.3163 32.1162L42.322 32.1221L62.8083 53.2509L62.8179 53.2609L62.8274 53.271C63.749 54.2482 64.9984 54.798 66.2967 54.8185C67.595 54.839 68.8593 54.3291 69.8088 53.3824C70.7602 52.4338 71.3161 51.1239 71.3369 49.7375C71.3576 48.3588 70.8471 47.0382 69.9335 46.0606L53.9724 29.9507L52.5736 28.5388L53.9767 27.1312L69.9864 11.0697C70.4373 10.5901 70.7959 10.0219 71.0395 9.39538C71.286 8.76162 71.4092 8.08241 71.401 7.39703C71.3927 6.71165 71.2533 6.03602 70.9919 5.40913C70.7305 4.78234 70.3531 4.21823 69.8839 3.74754C69.4148 3.27695 68.8632 2.909 68.262 2.66188L69.0121 0.837019L68.262 2.66188C67.6609 2.41481 67.0203 2.29259 66.3762 2.30082C65.7321 2.30904 65.0944 2.44758 64.499 2.71011C63.9035 2.9727 63.3604 3.35494 62.9023 3.83781L62.8927 3.84788L62.883 3.85781L42.3329 24.9245L42.3329 24.9246L42.3271 24.9304C41.8701 25.3951 41.5042 25.9512 41.2532 26.5681L39.4007 25.8143L41.2532 26.5681C41.0021 27.1852 40.8716 27.8491 40.8706 28.5211C40.8696 29.1931 40.998 29.8574 41.2472 30.4752C41.4964 31.0929 41.8607 31.6502 42.3163 32.1162ZM16.3479 27.0865L28.7791 14.3981L28.52 14.3977L31.8262 11.0084C32.7469 10.0646 33.2748 8.77185 33.2769 7.41178C33.2789 6.05172 32.7549 4.75741 31.8371 3.81083C30.9212 2.86616 29.6898 2.34497 28.4171 2.34304C27.1445 2.34112 25.9115 2.85857 24.9927 3.80048L4.44259 24.8672L4.43683 24.8731C3.97983 25.3377 3.61392 25.8939 3.36286 26.5108C3.11176 27.1279 2.98128 27.7918 2.98027 28.4638C2.97925 29.1358 3.10771 29.8001 3.35695 30.4179C3.60614 31.0356 3.97037 31.5928 4.42597 32.0588L4.43168 32.0647L24.918 53.1936L24.9276 53.2035L24.9371 53.2136C25.8587 54.1909 27.108 54.7406 28.4064 54.7611C29.7047 54.7816 30.969 54.2717 31.9185 53.325C32.8699 52.3765 33.4258 51.0666 33.4466 49.6802C33.4673 48.2987 32.9548 46.9756 32.0377 45.9975L16.3436 29.8815L14.9807 28.4819L16.3479 27.0865Z" fill="#FEF5E2" fill-opacity="0.48" stroke="black" stroke-width="4"/>
</svg>
